<mxfile host="Electron" agent="Mozilla/5.0 (Windows NT 10.0; Win64; x64) AppleWebKit/537.36 (KHTML, like Gecko) draw.io/27.0.9 Chrome/134.0.6998.205 Electron/35.4.0 Safari/537.36" version="27.0.9" pages="3">
  <diagram name="System Overview" id="zhQGM93XqPFbHGR14039">
    <mxGraphModel dx="1833" dy="1039" grid="1" gridSize="10" guides="1" tooltips="1" connect="1" arrows="1" fold="1" page="1" pageScale="1" pageWidth="1169" pageHeight="827" math="0" shadow="0">
      <root>
        <mxCell id="0" />
        <mxCell id="1" parent="0" />
        <mxCell id="Ijga36QH6HLmQxVZs_jU-1" value="" style="swimlane;startSize=0;dashed=1;whiteSpace=wrap;fontColor=none;noLabel=1;" vertex="1" parent="1">
          <mxGeometry x="520" y="160" width="430" height="230" as="geometry" />
        </mxCell>
        <mxCell id="Ijga36QH6HLmQxVZs_jU-3" value="" style="shape=image;verticalLabelPosition=bottom;labelBackgroundColor=default;verticalAlign=top;aspect=fixed;imageAspect=0;image=data:image/png,iVBORw0KGgoAAAANSUhEUgAAANUAAADtCAMAAAAft8BxAAAAulBMVEWLxQD///9maGGHwwCMyAC83X+r1FtmZ2KFwgBkY2RpcFplZWNkY2NjYWWDsh9seFR9ojDi8MhvflC423mGuRP+//uJwAF5mjpxhUn3++31+uny+ONqcliCryJtelF3lD/L5Jre7r2gzzzD4Irs9diazC97njN+pivR56fX6rCz2GqTyRul0kx1j0Fnal54lzqk0Umq1FdziUaFthaAqyZvgU3b7Li32nHJ45Xp9NNrdVZyh0diW2d2kUCiqZAGAAAKkUlEQVR4nO2dfVubOhjGA8kKSFtf1larzqmzvrSzunnc1HP2/b/WCfRlAfLyhCQUuLj/8ZqTJr8mgTtPwhPkVaHTh/kMITTr3Z9WUh6qoIzpZxxilIj+/F0FVwVU92iFtBJGl+6LdE51OAtRVuHiynWhjqnOfoQY5YXD5xu3xTqlmn7DRaaUC3+auizYJdXDIt/52OF177Bkd1Tv12KmdHjNDp2V7YrqdM4ZUPnh1TtzVLobqvEbUjGthte3sZPynVD9kgyoXDdcPLiogAOqm2dl52O5rt/tV8E6FbVHGkxJNwzn1k2Ubap70IDKcaFLy8PLLlXRHsEUzq6s1sMmFdceAZvLromyRzUW2SMgF/5sz0RZo5LZIyCXPRNliUplj2CyZqKsUAHsEUy2TJQFKqA9AnJZMVHmVFcl7+Yi2TBRplQ33y11PpbL2ESZUWnbI5iMTZQRVRl7BOQyM1EGVIdW7uYiGZmo0lSnPfsDKiMcfi9tokpSGdojIFdpE1WOytweAblKmqgyVO/P1TAlKmei9KmmtuwRTKVMlC7V+NLZ3VzIpW+iNKls2yOYtE2UFpXBZNeUS89EaVBNP++KCemaKDiVO3sE5NIwUVAqt/YIJriJglE5t0cwURMFu8tDqCqxRzDhEGSiAFRV2SOYQCZKSaW3FlCFwmuliVJQTX/XjQlBTJSUagf2CCaViZJR7cYewSQ3UWKq3dkjmMJnsYkSUY0/1ZsJSU2UgGrX9ggmoYniUtXBHsEkMFEcqmk97BFMfBNVoKqRPYKJZ6LyVPCtEvVR0URlqVysBVShvIliqWppj2CiJuqUT3XZsAGVVcZEbanqbI9gYkzUhmqXkRZrCq/PMlS9pjfUShgfMlTzdkBR4Zst1VtroBCebajO2gNFx9b9mmreghvFVnixopq2CYo21ntKddWmDkgb6y2lemtXW+F5SvWpZVS9jqop6qiao46qOeqomqOOqjnqqJqjjqoCEWLlY+pF9XL+hGxw1YqKHAyivTsLXDWjivwg2v9ijFU7Kt8PBq8jQ64aUvl+3H+cGHHVksr3+8tjkw+qKRXtho8GrVVXKj/YM/igjsq5OiqpOirn6qik6qicq6OSqqNyro5Kqo7KuToqqQBUBI00w3Qh0t08SdISNKiItEpKKkLuzuOjFw0sjO6nZ1obXQn552lINKgIub04kdRJRUVejqJAJzyy2YStkfGHvFwMouiE9gggFRl+RIGsTnIqMvkZxWkhff8W0g1x+GO7YR64gZyWMQj8NLCEbvsAKjI6SS+Q1ElGRdBxsC0miM7/UWJlX24Yf1O/acKW0V8ufSUVmXyNY7ZOvEqJqeiA2osCnyknUkQfiy+inCmyENABdc6UkSmNS5VWSl0nIRUdUAO2lERx/EccBMfhnPNqqDRDHRkdRfkypFTkZT9fKW6dBFRJZ485ZUXLA0FXFiaUe0ACLjJ55JYhpCKTfwtfdFqnwvDiUtHO7veLl6+a/IMX3A8Xv/hMyfD6xHt6EXS7FJTBp0oqxf8SinXiUWU7e+Ez+if5rqx6cZLzIiH58iEpo0hFpJUKomydilSyzr5SHDxlG6qnTGVwuMh2htGJoowclbJSyfCSUU0E7cwqEwTHv1VMSTdcsHW8jZRlZKjInWQEbup0IaEiw4ESyg/2GaoQlKvmM9NYk76ioQpUR+pv2h+Mdks1kt0m+FTqr8GPtKjiKM73aetUQaH1FFRBVPgMHaogOnpBB7mbsIJq/HalRUXLKNzmpVTUKh08BbleqUG1clr0gRmznyGnulqEjMlVU0V7dyRfgpQq9p/orX50km1gOFW82f9ADRRTFRnV6uFUeIQJqeL4a1pGMh9haimmSh9Oqb6cs54QTBUdbGtPyAVjQ4VUf99yD9EvCFVwtHl+Uue6ZIoQUQXLIQU62Ps5oT+Ot+2bWXKVUwUT5pOPmcmPkIp5NQPjMYCqz5gC8lUwv2Kp4hOChhcRnb/c0v/ZfA/RHjtPckiFEIyKKQJIRc77aesMyZpq04ubTfWR/jNaUwWDi5HC3TaPKlre5WcRjaRC5/GmB/IDRc2kGu5H9BlM7xbk4mIImeFbvAeGTu6BwStJ4oH+v2kT8aOdtqm8bULpXN5J4fNqf/Nl09mxz/xe+BTu0yeVbuzWlGqd/LtwGJTQWwRpLVezYxBVunVLHsSzT+V577Mw/J2PN0l8YD8Jp0xyrk7mA4VxQJdUnndf/JXUsw/2v+YduHwmEgykoX85VZyhYoLg1udXhbmuatYYR5LQf02oilLPhWnHFQ0vKdXglb3qpf/XILNUycu5al3rxi3OWaqfvLCDeHhJqBLLyIqZAGWoIFinPzIBx2NlyKgfZNYqJie8qK1weAmpOMHMv+sJWSrl2XeFTEirVTGx4vXdnrkisRPcv+QNLwGVYFc5QU9ptDBHpcg4zkkUmV/byPUsjg0iheDJplWXt0CqvnCRYBXBz1MlXKKz7274ebTpFxRzu2GQeHBe4WTyp8+7IvjvBUKVn4PlPnx4MYg/OK2edxOpJJmQ+EscSbhbVPh2lTHTVrn4OJcKjZaKxbek9/zk/UUx47giUWRxsNDRLF2ALiw6xHF+BPKpkPrtE+Eicy5ZpjITUm6wCJaRslewkcMgeoXdA83EBsxAiSIJ+rNdSej7otGcuWLyuL4iGNAvAfa8MlW4TqMGzqNNRq9pp5Iuz+avSO5YaXCU/xcOdvwkGcfHOokik2hlX7WUnrviQzodcbGPCeOZXq4+Orwe1dsesleMZHeVmuzOkk9ttVUTKsvqqJqjjqo56qiao46qOeqomqOOqjnqqJqjjqo56qiao46qOeqomqOOqjlqNdW3llGtcn7/ald+9vAypTptGdXN6tyD723qgvjaW1Edtqmx0p1V6XkiLWqsMH3NLaWaNuJsPIjw83hL5d20BCu8Xu0iWJ8+NK35kZMwhb311ggE3vVRe3HOv/LaeVaZfDdV3SU+V85r5xmAidp4XqOXvEPasOEFOVszGV6KdBu1EvAc1ERtPLM20UMjzAbGbxrnC3stPQua6qzmxwwnWxFFElPV20SVPWPdU25z3p1UaV2kVDU1UbiYv0CPqo4mqrh1Xp+qbiaK/5qDPlWdTBTPHpWk8rzTetzlsTBJVymqepgoWZKuclSep7P33oUwEtgjI6rdmiiJPTKj2qWJktkjU6pdmSi5PTKn2oWJovYIcjc3oarcRKntkRWqak0UwB5ZoqrORIHskTWqakwULuaUcEtVgYkC2yObVK5NFNwe2aVyGYnSsUe2qbwpN/GrOVM417+b26MCvhisKU175IDKvokKF/m1gF1Q2TVRGIvyL1RMZdFE8dcC9GWFypaJEqwF6MsSlQ0TVdYecWSNipooo+GFcVl7xJE9KiMThcPr0vaII5tUWodTZGRkjziyS1XORBnaI45sU+mbKGN7xJF1Kl0TVW6yq5ADKh0TFRa2SliREyrPg5koO/aII0dUEBMlTyVmJFdUaTYwKZcq7ZuJ3FHJTZRFe8SRSyqxibJqjzhySiUyUeaTXYUcU/EiUdprAfpyTpU3UaqtElZUARU1UWjdD3GIe9btEUdVUFGuh/mMQs1691Uwed7/EQD6gL5/PnQAAAAASUVORK5CYII=;" vertex="1" parent="Ijga36QH6HLmQxVZs_jU-1">
          <mxGeometry x="70" y="50" width="53.92" height="60" as="geometry" />
        </mxCell>
        <mxCell id="Ijga36QH6HLmQxVZs_jU-15" value="" style="outlineConnect=0;dashed=0;verticalLabelPosition=bottom;verticalAlign=top;align=center;html=1;shape=mxgraph.aws3.mysql_db_instance_2;fillColor=#2E73B8;gradientColor=none;" vertex="1" parent="Ijga36QH6HLmQxVZs_jU-1">
          <mxGeometry x="280" y="47" width="60" height="63" as="geometry" />
        </mxCell>
        <mxCell id="Ijga36QH6HLmQxVZs_jU-18" value="" style="endArrow=none;html=1;rounded=0;entryX=0;entryY=0.5;entryDx=0;entryDy=0;entryPerimeter=0;exitX=1;exitY=0.5;exitDx=0;exitDy=0;" edge="1" parent="Ijga36QH6HLmQxVZs_jU-1" source="Ijga36QH6HLmQxVZs_jU-3" target="Ijga36QH6HLmQxVZs_jU-15">
          <mxGeometry width="50" height="50" relative="1" as="geometry">
            <mxPoint x="30" y="370" as="sourcePoint" />
            <mxPoint x="80" y="320" as="targetPoint" />
          </mxGeometry>
        </mxCell>
        <mxCell id="Ijga36QH6HLmQxVZs_jU-8" value="&lt;h1&gt;Server Computer&lt;/h1&gt;" style="text;html=1;strokeColor=none;fillColor=none;spacing=5;spacingTop=-20;whiteSpace=wrap;overflow=hidden;rounded=0;" vertex="1" parent="1">
          <mxGeometry x="730" y="391" width="220" height="44.5" as="geometry" />
        </mxCell>
        <mxCell id="Ijga36QH6HLmQxVZs_jU-16" value="Browser / End User" style="shape=umlActor;verticalLabelPosition=bottom;verticalAlign=top;html=1;outlineConnect=0;" vertex="1" parent="1">
          <mxGeometry x="130" y="220" width="30" height="60" as="geometry" />
        </mxCell>
        <mxCell id="Ijga36QH6HLmQxVZs_jU-17" value="" style="endArrow=classic;startArrow=classic;html=1;rounded=0;exitX=1;exitY=0.3333333333333333;exitDx=0;exitDy=0;exitPerimeter=0;entryX=0;entryY=0.5;entryDx=0;entryDy=0;" edge="1" parent="1" source="Ijga36QH6HLmQxVZs_jU-16" target="Ijga36QH6HLmQxVZs_jU-3">
          <mxGeometry width="50" height="50" relative="1" as="geometry">
            <mxPoint x="550" y="530" as="sourcePoint" />
            <mxPoint x="600" y="480" as="targetPoint" />
          </mxGeometry>
        </mxCell>
        <mxCell id="Ijga36QH6HLmQxVZs_jU-19" value="Browser / Admin User" style="shape=umlActor;verticalLabelPosition=bottom;verticalAlign=top;html=1;outlineConnect=0;" vertex="1" parent="1">
          <mxGeometry x="120" y="354" width="30" height="60" as="geometry" />
        </mxCell>
        <mxCell id="Ijga36QH6HLmQxVZs_jU-20" value="" style="endArrow=classic;startArrow=classic;html=1;rounded=0;entryX=0;entryY=1;entryDx=0;entryDy=0;exitX=1;exitY=0.3333333333333333;exitDx=0;exitDy=0;exitPerimeter=0;" edge="1" parent="1" source="Ijga36QH6HLmQxVZs_jU-19" target="Ijga36QH6HLmQxVZs_jU-3">
          <mxGeometry width="50" height="50" relative="1" as="geometry">
            <mxPoint x="550" y="530" as="sourcePoint" />
            <mxPoint x="600" y="480" as="targetPoint" />
          </mxGeometry>
        </mxCell>
      </root>
    </mxGraphModel>
  </diagram>
  <diagram id="yXb3vhpljV9uFzEzmGIh" name="Database Diagram">
    <mxGraphModel dx="1649" dy="825" grid="1" gridSize="10" guides="1" tooltips="1" connect="1" arrows="1" fold="1" page="1" pageScale="1" pageWidth="2339" pageHeight="3300" math="0" shadow="0">
      <root>
        <mxCell id="0" />
        <mxCell id="1" parent="0" />
        <mxCell id="AIomgWoouilZEIq28c9D-1" value="users" style="swimlane;fontStyle=0;childLayout=stackLayout;horizontal=1;startSize=30;horizontalStack=0;resizeParent=1;resizeParentMax=0;resizeLast=0;collapsible=1;marginBottom=0;whiteSpace=wrap;html=1;" vertex="1" parent="1">
          <mxGeometry x="90" y="140" width="140" height="120" as="geometry" />
        </mxCell>
        <mxCell id="AIomgWoouilZEIq28c9D-2" value="Item 1" style="text;strokeColor=none;fillColor=none;align=left;verticalAlign=middle;spacingLeft=4;spacingRight=4;overflow=hidden;points=[[0,0.5],[1,0.5]];portConstraint=eastwest;rotatable=0;whiteSpace=wrap;html=1;" vertex="1" parent="AIomgWoouilZEIq28c9D-1">
          <mxGeometry y="30" width="140" height="30" as="geometry" />
        </mxCell>
        <mxCell id="AIomgWoouilZEIq28c9D-3" value="Item 2" style="text;strokeColor=none;fillColor=none;align=left;verticalAlign=middle;spacingLeft=4;spacingRight=4;overflow=hidden;points=[[0,0.5],[1,0.5]];portConstraint=eastwest;rotatable=0;whiteSpace=wrap;html=1;" vertex="1" parent="AIomgWoouilZEIq28c9D-1">
          <mxGeometry y="60" width="140" height="30" as="geometry" />
        </mxCell>
        <mxCell id="AIomgWoouilZEIq28c9D-4" value="user_category" style="text;strokeColor=none;fillColor=none;align=left;verticalAlign=middle;spacingLeft=4;spacingRight=4;overflow=hidden;points=[[0,0.5],[1,0.5]];portConstraint=eastwest;rotatable=0;whiteSpace=wrap;html=1;" vertex="1" parent="AIomgWoouilZEIq28c9D-1">
          <mxGeometry y="90" width="140" height="30" as="geometry" />
        </mxCell>
        <mxCell id="AIomgWoouilZEIq28c9D-5" value="accounts" style="swimlane;fontStyle=0;childLayout=stackLayout;horizontal=1;startSize=30;horizontalStack=0;resizeParent=1;resizeParentMax=0;resizeLast=0;collapsible=1;marginBottom=0;whiteSpace=wrap;html=1;" vertex="1" parent="1">
          <mxGeometry x="350" y="140" width="140" height="150" as="geometry" />
        </mxCell>
        <mxCell id="AIomgWoouilZEIq28c9D-6" value="PK id" style="text;strokeColor=none;fillColor=none;align=left;verticalAlign=middle;spacingLeft=4;spacingRight=4;overflow=hidden;points=[[0,0.5],[1,0.5]];portConstraint=eastwest;rotatable=0;whiteSpace=wrap;html=1;" vertex="1" parent="AIomgWoouilZEIq28c9D-5">
          <mxGeometry y="30" width="140" height="30" as="geometry" />
        </mxCell>
        <mxCell id="AIomgWoouilZEIq28c9D-7" value="account_type" style="text;strokeColor=none;fillColor=none;align=left;verticalAlign=middle;spacingLeft=4;spacingRight=4;overflow=hidden;points=[[0,0.5],[1,0.5]];portConstraint=eastwest;rotatable=0;whiteSpace=wrap;html=1;" vertex="1" parent="AIomgWoouilZEIq28c9D-5">
          <mxGeometry y="60" width="140" height="30" as="geometry" />
        </mxCell>
        <mxCell id="AIomgWoouilZEIq28c9D-8" value="account_number" style="text;strokeColor=none;fillColor=none;align=left;verticalAlign=middle;spacingLeft=4;spacingRight=4;overflow=hidden;points=[[0,0.5],[1,0.5]];portConstraint=eastwest;rotatable=0;whiteSpace=wrap;html=1;" vertex="1" parent="AIomgWoouilZEIq28c9D-5">
          <mxGeometry y="90" width="140" height="30" as="geometry" />
        </mxCell>
        <mxCell id="AIomgWoouilZEIq28c9D-14" value="sort_code" style="text;strokeColor=none;fillColor=none;align=left;verticalAlign=middle;spacingLeft=4;spacingRight=4;overflow=hidden;points=[[0,0.5],[1,0.5]];portConstraint=eastwest;rotatable=0;whiteSpace=wrap;html=1;" vertex="1" parent="AIomgWoouilZEIq28c9D-5">
          <mxGeometry y="120" width="140" height="30" as="geometry" />
        </mxCell>
        <mxCell id="AIomgWoouilZEIq28c9D-9" value="List" style="swimlane;fontStyle=0;childLayout=stackLayout;horizontal=1;startSize=30;horizontalStack=0;resizeParent=1;resizeParentMax=0;resizeLast=0;collapsible=1;marginBottom=0;whiteSpace=wrap;html=1;" vertex="1" parent="1">
          <mxGeometry x="590" y="130" width="140" height="120" as="geometry" />
        </mxCell>
        <mxCell id="AIomgWoouilZEIq28c9D-10" value="Item 1" style="text;strokeColor=none;fillColor=none;align=left;verticalAlign=middle;spacingLeft=4;spacingRight=4;overflow=hidden;points=[[0,0.5],[1,0.5]];portConstraint=eastwest;rotatable=0;whiteSpace=wrap;html=1;" vertex="1" parent="AIomgWoouilZEIq28c9D-9">
          <mxGeometry y="30" width="140" height="30" as="geometry" />
        </mxCell>
        <mxCell id="AIomgWoouilZEIq28c9D-11" value="Item 2" style="text;strokeColor=none;fillColor=none;align=left;verticalAlign=middle;spacingLeft=4;spacingRight=4;overflow=hidden;points=[[0,0.5],[1,0.5]];portConstraint=eastwest;rotatable=0;whiteSpace=wrap;html=1;" vertex="1" parent="AIomgWoouilZEIq28c9D-9">
          <mxGeometry y="60" width="140" height="30" as="geometry" />
        </mxCell>
        <mxCell id="AIomgWoouilZEIq28c9D-12" value="Item 3" style="text;strokeColor=none;fillColor=none;align=left;verticalAlign=middle;spacingLeft=4;spacingRight=4;overflow=hidden;points=[[0,0.5],[1,0.5]];portConstraint=eastwest;rotatable=0;whiteSpace=wrap;html=1;" vertex="1" parent="AIomgWoouilZEIq28c9D-9">
          <mxGeometry y="90" width="140" height="30" as="geometry" />
        </mxCell>
        <mxCell id="AIomgWoouilZEIq28c9D-13" value="account type:&lt;div&gt;personal_single&lt;/div&gt;&lt;div&gt;personal_joint&lt;/div&gt;&lt;div&gt;business&lt;/div&gt;" style="text;html=1;align=center;verticalAlign=middle;whiteSpace=wrap;rounded=0;" vertex="1" parent="1">
          <mxGeometry x="240" y="410" width="230" height="90" as="geometry" />
        </mxCell>
      </root>
    </mxGraphModel>
  </diagram>
  <diagram id="eikFsoCzuHHdz0CGobXf" name="Server App">
    <mxGraphModel dx="1649" dy="825" grid="1" gridSize="10" guides="1" tooltips="1" connect="1" arrows="1" fold="1" page="1" pageScale="1" pageWidth="2339" pageHeight="3300" math="0" shadow="0">
      <root>
        <mxCell id="0" />
        <mxCell id="1" parent="0" />
      </root>
    </mxGraphModel>
  </diagram>
</mxfile>
